# xmcd
#
# Track frame offsets:
#	150
#	17890
#	37270
#	55360
#	83587
#	103485
#	121442
#	134610
#	150777
#
# Disc length: 2234 seconds
#
# Revision: 1
# Processed by: cddbd v1.5.1PL0 Copyright (c) Steve Scherf et al.
# Submitted via: dBpowerAMP V4.0
#
DISCID=7808b809
DTITLE=Cindy Peress - The World Is Watching
DYEAR=1992
DGENRE=blues
TTITLE0=I'm a Refugee
TTITLE1=She'll Never Forget
TTITLE2=Someplace in Time
TTITLE3=Silent Tears
TTITLE4=Sweet and Hot
TTITLE5=Reasons I Still Can Believe (You are the One)
TTITLE6=You Left Me this Morning
TTITLE7=I've Got Something You Want
TTITLE8=Goodbye, Goodnight Girl
EXTD=1992
EXTT0=
EXTT1=
EXTT2=
EXTT3=
EXTT4=
EXTT5=
EXTT6=
EXTT7=
EXTT8=
PLAYORDER=
